<svg width="105" height="103" viewBox="0 0 105 103" fill="none" xmlns="http://www.w3.org/2000/svg">
<path id="Vector" d="M72.6971 71.824C76.5688 71.4101 79.5061 67.9639 79.3725 63.828C79.2393 59.6924 75.9012 56.3838 71.8959 56.3838H71.6291C67.4897 56.5217 64.2856 60.1059 64.4193 64.3793C64.5529 66.4473 65.3537 68.2394 66.5553 69.4801C62.016 78.7168 55.0734 85.4717 44.6594 91.1238C37.5832 94.9839 30.2402 96.3625 22.8971 95.3977C16.8889 94.5704 12.216 91.8136 9.27827 87.2637C5.00614 80.5089 4.60573 73.2022 8.21065 65.8959C10.7475 60.6572 14.7525 56.7972 17.2893 54.8672C16.7553 53.0751 15.9541 50.0423 15.5537 47.8368C-3.80574 62.3118 -1.80287 81.8875 4.07172 91.1238C8.47745 98.0171 17.4229 102.291 27.3029 102.291C29.9729 102.291 32.643 102.015 35.3135 101.326C52.4033 97.8791 65.3541 87.4017 72.6971 71.824ZM96.1955 54.7296C86.0483 42.4601 71.0951 35.7053 54.0053 35.7053H51.8693C50.6676 33.2239 48.1307 31.5693 45.327 31.5693H45.0598C40.9213 31.7073 37.7172 35.2914 37.8504 39.5653C37.984 43.7009 41.3217 47.0095 45.327 47.0095H45.5938C48.5311 46.8716 51.068 44.9416 52.1361 42.3222H54.5393C64.6865 42.3222 74.2992 45.355 82.9779 51.283C89.6533 55.8324 94.4598 61.7604 97.1299 68.9287C99.3996 74.7188 99.266 80.3709 96.8627 85.1962C93.1246 92.5025 86.8496 96.5005 78.5717 96.5005C73.2311 96.5005 68.1578 94.8459 65.4873 93.6052C64.0188 94.9839 61.3484 97.1894 59.4791 98.5684C65.2205 101.325 71.0951 102.842 76.7025 102.842C89.5197 102.842 98.9992 95.5352 102.604 88.229C106.476 80.233 106.209 66.4473 96.1955 54.7296ZM28.3709 74.167C28.5045 78.3029 31.8422 81.6112 35.8475 81.6112H36.1147C40.2537 81.4737 43.4578 77.8891 43.3242 73.6156C43.191 69.4797 39.8529 66.1714 35.8475 66.1714H35.5807C35.3135 66.1714 34.9127 66.1714 34.6463 66.3089C29.1721 56.9347 26.9025 46.7336 27.7037 35.7048C28.2373 27.4334 30.9078 20.2646 35.5807 14.3366C39.4525 9.23586 46.9291 6.75446 52.0029 6.61693C66.1549 6.34103 72.1627 24.5381 72.5635 31.8448C74.2992 32.2582 77.2365 33.2234 79.2393 33.9128C77.6369 11.5802 64.2856 0 51.4688 0C39.4524 0 28.3709 8.9608 23.9647 22.1951C17.8234 39.8408 21.8287 56.7972 29.3053 70.1694C28.6381 71.1342 28.2373 72.6508 28.3709 74.1674V74.167Z" fill="#764ABC"/>
</svg>
